<mxfile host="app.diagrams.net" modified="2022-03-07T07:20:02.995Z" agent="5.0 (Windows NT 10.0; Win64; x64) AppleWebKit/537.36 (KHTML, like Gecko) Chrome/97.0.4692.99 Safari/537.36" etag="0c-VUp0mJNKkBkOGqexI" version="16.6.5" type="github">
  <diagram id="BDvVSngGOplgBvMkCZ0S" name="Page-1">
    <mxGraphModel dx="1483" dy="794" grid="1" gridSize="10" guides="1" tooltips="1" connect="1" arrows="1" fold="1" page="1" pageScale="1" pageWidth="827" pageHeight="1169" math="0" shadow="0">
      <root>
        <mxCell id="0" />
        <mxCell id="1" parent="0" />
        <mxCell id="b1F-uJUC9WspK6oYwCPj-3" value="consumer server" style="swimlane;fillColor=#F2FFD4;dashed=1;dashPattern=1 2;" parent="1" vertex="1">
          <mxGeometry x="200" y="45" width="430" height="735" as="geometry">
            <mxRectangle x="370" y="60" width="80" height="23" as="alternateBounds" />
          </mxGeometry>
        </mxCell>
        <mxCell id="ONsFw0UCnMqLuJ3qpuSr-8" value="" style="rounded=1;whiteSpace=wrap;html=1;fillColor=#F5FFFF;" parent="b1F-uJUC9WspK6oYwCPj-3" vertex="1">
          <mxGeometry x="80" y="367" width="320" height="345" as="geometry" />
        </mxCell>
        <mxCell id="b1F-uJUC9WspK6oYwCPj-13" value="监听订单消息" style="whiteSpace=wrap;html=1;align=center;fillColor=#99CCFF;" parent="b1F-uJUC9WspK6oYwCPj-3" vertex="1">
          <mxGeometry x="120" y="60" width="100" height="40" as="geometry" />
        </mxCell>
        <mxCell id="b1F-uJUC9WspK6oYwCPj-18" value="是否已推送" style="rhombus;whiteSpace=wrap;html=1;fillColor=#ffffc0;strokeColor=#000000;dashed=1;dashPattern=1 2;" parent="b1F-uJUC9WspK6oYwCPj-3" vertex="1">
          <mxGeometry x="130" y="135" width="80" height="40" as="geometry" />
        </mxCell>
        <mxCell id="b1F-uJUC9WspK6oYwCPj-19" value="是" style="edgeStyle=orthogonalEdgeStyle;html=1;align=left;verticalAlign=bottom;endArrow=open;endSize=8;strokeColor=#000000;rounded=0;exitX=1;exitY=0.5;exitDx=0;exitDy=0;entryX=0;entryY=0.5;entryDx=0;entryDy=0;" parent="b1F-uJUC9WspK6oYwCPj-3" source="b1F-uJUC9WspK6oYwCPj-18" target="b1F-uJUC9WspK6oYwCPj-34" edge="1">
          <mxGeometry x="-0.3331" y="2" relative="1" as="geometry">
            <mxPoint x="270" y="152.56" as="targetPoint" />
            <Array as="points" />
            <mxPoint as="offset" />
          </mxGeometry>
        </mxCell>
        <mxCell id="b1F-uJUC9WspK6oYwCPj-20" value="否" style="edgeStyle=orthogonalEdgeStyle;html=1;align=left;verticalAlign=top;endArrow=open;endSize=8;strokeColor=#000000;rounded=0;entryX=0.5;entryY=0;entryDx=0;entryDy=0;" parent="b1F-uJUC9WspK6oYwCPj-3" source="b1F-uJUC9WspK6oYwCPj-18" target="b1F-uJUC9WspK6oYwCPj-38" edge="1">
          <mxGeometry x="-0.886" relative="1" as="geometry">
            <mxPoint x="170" y="220" as="targetPoint" />
            <Array as="points" />
            <mxPoint as="offset" />
          </mxGeometry>
        </mxCell>
        <mxCell id="b1F-uJUC9WspK6oYwCPj-28" value="" style="endArrow=classic;html=1;rounded=0;entryX=0.5;entryY=0;entryDx=0;entryDy=0;exitX=0.399;exitY=1.064;exitDx=0;exitDy=0;exitPerimeter=0;" parent="b1F-uJUC9WspK6oYwCPj-3" target="b1F-uJUC9WspK6oYwCPj-18" edge="1">
          <mxGeometry width="50" height="50" relative="1" as="geometry">
            <mxPoint x="169.89999999999998" y="100" as="sourcePoint" />
            <mxPoint x="140" y="87.44" as="targetPoint" />
          </mxGeometry>
        </mxCell>
        <mxCell id="b1F-uJUC9WspK6oYwCPj-30" value="手动推送" style="rhombus;whiteSpace=wrap;html=1;fillColor=#ffffc0;strokeColor=#000000;dashed=1;dashPattern=1 2;" parent="b1F-uJUC9WspK6oYwCPj-3" vertex="1">
          <mxGeometry x="270" y="216.34" width="80" height="40" as="geometry" />
        </mxCell>
        <mxCell id="b1F-uJUC9WspK6oYwCPj-34" value="重推流程" style="whiteSpace=wrap;html=1;align=center;fillColor=#99CCFF;" parent="b1F-uJUC9WspK6oYwCPj-3" vertex="1">
          <mxGeometry x="270" y="137.44" width="80" height="35.12" as="geometry" />
        </mxCell>
        <mxCell id="b1F-uJUC9WspK6oYwCPj-36" value="" style="endArrow=classic;html=1;rounded=0;entryX=0.5;entryY=0;entryDx=0;entryDy=0;exitX=0.5;exitY=1;exitDx=0;exitDy=0;" parent="b1F-uJUC9WspK6oYwCPj-3" source="b1F-uJUC9WspK6oYwCPj-34" target="b1F-uJUC9WspK6oYwCPj-30" edge="1">
          <mxGeometry width="50" height="50" relative="1" as="geometry">
            <mxPoint x="309.8299999999999" y="187.56" as="sourcePoint" />
            <mxPoint x="309.93000000000006" y="210" as="targetPoint" />
          </mxGeometry>
        </mxCell>
        <mxCell id="ONsFw0UCnMqLuJ3qpuSr-2" value="" style="edgeStyle=orthogonalEdgeStyle;rounded=0;orthogonalLoop=1;jettySize=auto;html=1;" parent="b1F-uJUC9WspK6oYwCPj-3" source="b1F-uJUC9WspK6oYwCPj-38" target="b1F-uJUC9WspK6oYwCPj-46" edge="1">
          <mxGeometry relative="1" as="geometry" />
        </mxCell>
        <mxCell id="b1F-uJUC9WspK6oYwCPj-38" value="记录推送/重推日志" style="whiteSpace=wrap;html=1;align=center;fillColor=#E1D5E7;" parent="b1F-uJUC9WspK6oYwCPj-3" vertex="1">
          <mxGeometry x="130" y="216.34" width="80" height="42.44" as="geometry" />
        </mxCell>
        <mxCell id="b1F-uJUC9WspK6oYwCPj-37" value="是" style="edgeStyle=orthogonalEdgeStyle;html=1;align=left;verticalAlign=bottom;endArrow=open;endSize=8;strokeColor=#000000;rounded=0;exitX=-0.023;exitY=0.474;exitDx=0;exitDy=0;exitPerimeter=0;entryX=1.024;entryY=0.438;entryDx=0;entryDy=0;entryPerimeter=0;" parent="b1F-uJUC9WspK6oYwCPj-3" source="b1F-uJUC9WspK6oYwCPj-30" target="b1F-uJUC9WspK6oYwCPj-38" edge="1">
          <mxGeometry x="0.3618" relative="1" as="geometry">
            <mxPoint x="299" y="296.34" as="targetPoint" />
            <mxPoint x="220" y="183.78" as="sourcePoint" />
            <Array as="points" />
            <mxPoint as="offset" />
          </mxGeometry>
        </mxCell>
        <mxCell id="b1F-uJUC9WspK6oYwCPj-40" value="log日志记录" style="whiteSpace=wrap;html=1;align=center;fillColor=#D5E8D4;" parent="b1F-uJUC9WspK6oYwCPj-3" vertex="1">
          <mxGeometry x="270" y="292.32000000000005" width="80" height="42.44" as="geometry" />
        </mxCell>
        <mxCell id="b1F-uJUC9WspK6oYwCPj-41" value="否" style="edgeStyle=orthogonalEdgeStyle;html=1;align=left;verticalAlign=top;endArrow=open;endSize=8;strokeColor=#000000;rounded=0;entryX=0.5;entryY=0;entryDx=0;entryDy=0;" parent="b1F-uJUC9WspK6oYwCPj-3" target="b1F-uJUC9WspK6oYwCPj-40" edge="1">
          <mxGeometry x="-0.886" relative="1" as="geometry">
            <mxPoint x="180" y="233.66000000000003" as="targetPoint" />
            <mxPoint x="310" y="255" as="sourcePoint" />
            <Array as="points" />
            <mxPoint as="offset" />
          </mxGeometry>
        </mxCell>
        <mxCell id="KlNrOT9Lmi1wFEdrxgjB-2" value="" style="edgeStyle=orthogonalEdgeStyle;rounded=0;orthogonalLoop=1;jettySize=auto;html=1;" edge="1" parent="b1F-uJUC9WspK6oYwCPj-3" source="b1F-uJUC9WspK6oYwCPj-46" target="KlNrOT9Lmi1wFEdrxgjB-1">
          <mxGeometry relative="1" as="geometry" />
        </mxCell>
        <mxCell id="b1F-uJUC9WspK6oYwCPj-46" value="商家号&lt;br&gt;路由" style="ellipse;shape=umlControl;whiteSpace=wrap;html=1;dashed=1;dashPattern=1 2;strokeColor=#000000;fillColor=#FFF2CC;gradientColor=none;" parent="b1F-uJUC9WspK6oYwCPj-3" vertex="1">
          <mxGeometry x="140" y="283.66" width="60" height="65" as="geometry" />
        </mxCell>
        <mxCell id="b1F-uJUC9WspK6oYwCPj-50" value="更新推送/重推日志状态" style="whiteSpace=wrap;html=1;align=center;fillColor=#E1D5E7;" parent="b1F-uJUC9WspK6oYwCPj-3" vertex="1">
          <mxGeometry x="130" y="660" width="80" height="42.44" as="geometry" />
        </mxCell>
        <mxCell id="ONsFw0UCnMqLuJ3qpuSr-7" value="" style="edgeStyle=orthogonalEdgeStyle;rounded=0;orthogonalLoop=1;jettySize=auto;html=1;" parent="b1F-uJUC9WspK6oYwCPj-3" source="ONsFw0UCnMqLuJ3qpuSr-1" target="ONsFw0UCnMqLuJ3qpuSr-4" edge="1">
          <mxGeometry relative="1" as="geometry" />
        </mxCell>
        <mxCell id="ONsFw0UCnMqLuJ3qpuSr-1" value="调用线下接口" style="whiteSpace=wrap;html=1;align=center;fillColor=#99CCFF;" parent="b1F-uJUC9WspK6oYwCPj-3" vertex="1">
          <mxGeometry x="130" y="515.38" width="80" height="35.12" as="geometry" />
        </mxCell>
        <mxCell id="ONsFw0UCnMqLuJ3qpuSr-4" value="是否成功" style="rhombus;whiteSpace=wrap;html=1;fillColor=#ffffc0;strokeColor=#000000;dashed=1;dashPattern=1 2;" parent="b1F-uJUC9WspK6oYwCPj-3" vertex="1">
          <mxGeometry x="130" y="585" width="80" height="40" as="geometry" />
        </mxCell>
        <mxCell id="ONsFw0UCnMqLuJ3qpuSr-5" value="否" style="edgeStyle=orthogonalEdgeStyle;html=1;align=left;verticalAlign=bottom;endArrow=open;endSize=8;strokeColor=#000000;rounded=0;exitX=1;exitY=0.5;exitDx=0;exitDy=0;" parent="b1F-uJUC9WspK6oYwCPj-3" source="ONsFw0UCnMqLuJ3qpuSr-4" edge="1">
          <mxGeometry x="-0.0644" y="-10" relative="1" as="geometry">
            <mxPoint x="210" y="535" as="targetPoint" />
            <Array as="points">
              <mxPoint x="270" y="605" />
              <mxPoint x="270" y="535" />
              <mxPoint x="210" y="535" />
            </Array>
            <mxPoint as="offset" />
          </mxGeometry>
        </mxCell>
        <mxCell id="ONsFw0UCnMqLuJ3qpuSr-6" value="是" style="edgeStyle=orthogonalEdgeStyle;html=1;align=left;verticalAlign=top;endArrow=open;endSize=8;strokeColor=#000000;rounded=0;entryX=0.5;entryY=0;entryDx=0;entryDy=0;" parent="b1F-uJUC9WspK6oYwCPj-3" source="ONsFw0UCnMqLuJ3qpuSr-4" edge="1">
          <mxGeometry x="-0.886" relative="1" as="geometry">
            <mxPoint x="170" y="656.34" as="targetPoint" />
            <Array as="points" />
            <mxPoint as="offset" />
          </mxGeometry>
        </mxCell>
        <mxCell id="ONsFw0UCnMqLuJ3qpuSr-9" value="&lt;h3&gt;&lt;font style=&quot;font-size: 14px&quot;&gt;多线程异步处理&lt;/font&gt;&lt;/h3&gt;" style="text;html=1;strokeColor=none;fillColor=none;align=center;verticalAlign=middle;whiteSpace=wrap;rounded=0;" parent="b1F-uJUC9WspK6oYwCPj-3" vertex="1">
          <mxGeometry x="50" y="399.5" width="20" height="151" as="geometry" />
        </mxCell>
        <mxCell id="ONsFw0UCnMqLuJ3qpuSr-11" value="" style="edgeStyle=orthogonalEdgeStyle;rounded=0;orthogonalLoop=1;jettySize=auto;html=1;fontSize=14;" parent="b1F-uJUC9WspK6oYwCPj-3" source="ONsFw0UCnMqLuJ3qpuSr-10" target="b1F-uJUC9WspK6oYwCPj-34" edge="1">
          <mxGeometry relative="1" as="geometry" />
        </mxCell>
        <mxCell id="ONsFw0UCnMqLuJ3qpuSr-10" value="重推接口" style="whiteSpace=wrap;html=1;align=center;fillColor=#99CCFF;" parent="b1F-uJUC9WspK6oYwCPj-3" vertex="1">
          <mxGeometry x="280" y="60" width="60" height="40" as="geometry" />
        </mxCell>
        <mxCell id="KlNrOT9Lmi1wFEdrxgjB-7" value="" style="edgeStyle=orthogonalEdgeStyle;rounded=0;orthogonalLoop=1;jettySize=auto;html=1;" edge="1" parent="b1F-uJUC9WspK6oYwCPj-3" source="KlNrOT9Lmi1wFEdrxgjB-1">
          <mxGeometry relative="1" as="geometry">
            <mxPoint x="170" y="445" as="targetPoint" />
          </mxGeometry>
        </mxCell>
        <mxCell id="KlNrOT9Lmi1wFEdrxgjB-1" value="组装参数，订单状态过滤" style="whiteSpace=wrap;html=1;align=center;fillColor=#99CCFF;" vertex="1" parent="b1F-uJUC9WspK6oYwCPj-3">
          <mxGeometry x="130" y="385" width="80" height="35.12" as="geometry" />
        </mxCell>
        <mxCell id="KlNrOT9Lmi1wFEdrxgjB-11" value="是否满足&lt;br&gt;推送状态" style="rhombus;whiteSpace=wrap;html=1;fillColor=#ffffc0;strokeColor=#000000;dashed=1;dashPattern=1 2;" vertex="1" parent="b1F-uJUC9WspK6oYwCPj-3">
          <mxGeometry x="130" y="444.03999999999996" width="80" height="40" as="geometry" />
        </mxCell>
        <mxCell id="KlNrOT9Lmi1wFEdrxgjB-12" value="否" style="edgeStyle=orthogonalEdgeStyle;html=1;align=left;verticalAlign=bottom;endArrow=open;endSize=8;strokeColor=#000000;rounded=0;exitX=1;exitY=0.5;exitDx=0;exitDy=0;" edge="1" parent="b1F-uJUC9WspK6oYwCPj-3" source="KlNrOT9Lmi1wFEdrxgjB-11">
          <mxGeometry x="-0.08" y="10" relative="1" as="geometry">
            <mxPoint x="210" y="685" as="targetPoint" />
            <Array as="points">
              <mxPoint x="270" y="464" />
              <mxPoint x="350" y="465" />
              <mxPoint x="350" y="685" />
            </Array>
            <mxPoint as="offset" />
          </mxGeometry>
        </mxCell>
        <mxCell id="KlNrOT9Lmi1wFEdrxgjB-13" value="是" style="edgeStyle=orthogonalEdgeStyle;html=1;align=left;verticalAlign=top;endArrow=open;endSize=8;strokeColor=#000000;rounded=0;entryX=0.5;entryY=0;entryDx=0;entryDy=0;" edge="1" parent="b1F-uJUC9WspK6oYwCPj-3" source="KlNrOT9Lmi1wFEdrxgjB-11">
          <mxGeometry x="-0.886" relative="1" as="geometry">
            <mxPoint x="170" y="515.3800000000001" as="targetPoint" />
            <Array as="points" />
            <mxPoint as="offset" />
          </mxGeometry>
        </mxCell>
        <mxCell id="b1F-uJUC9WspK6oYwCPj-12" value="" style="endArrow=classic;html=1;rounded=0;entryX=0;entryY=0.5;entryDx=0;entryDy=0;" parent="1" target="b1F-uJUC9WspK6oYwCPj-13" edge="1">
          <mxGeometry width="50" height="50" relative="1" as="geometry">
            <mxPoint x="160" y="125" as="sourcePoint" />
            <mxPoint x="430" y="120" as="targetPoint" />
          </mxGeometry>
        </mxCell>
        <mxCell id="b1F-uJUC9WspK6oYwCPj-43" value="订单服务" style="text;html=1;strokeColor=none;fillColor=none;align=center;verticalAlign=middle;whiteSpace=wrap;rounded=0;dashed=1;dashPattern=1 2;" parent="1" vertex="1">
          <mxGeometry x="80" y="100" width="80" height="50" as="geometry" />
        </mxCell>
      </root>
    </mxGraphModel>
  </diagram>
</mxfile>
